<svg xmlns="http://www.w3.org/2000/svg" xmlns:xlink="http://www.w3.org/1999/xlink" preserveAspectRatio="xMidYMid" width="39.969" height="41.09" viewBox="0 0 39.969 41.09">
  <defs>
    <style>
      .cls-1 {
        fill: #abedf9;
        fill-rule: evenodd;
      }
    </style>
  </defs>
  <path d="M39.491,25.607 C36.292,32.536 27.909,34.266 20.606,27.012 C24.433,24.429 24.004,21.352 23.154,19.445 C27.714,20.521 29.592,16.597 34.044,16.764 C38.801,16.935 40.998,22.336 39.491,25.607 ZM16.992,25.368 C14.792,25.368 13.009,23.605 13.009,21.428 C13.009,19.250 14.792,17.486 16.992,17.486 C19.192,17.486 20.975,19.250 20.975,21.428 C20.975,23.605 19.192,25.368 16.992,25.368 ZM12.176,17.142 C10.839,12.688 6.472,13.051 4.384,9.145 C2.159,4.978 5.783,0.401 9.397,0.052 C17.063,-0.673 22.770,5.648 20.072,15.535 C15.901,13.551 13.421,15.451 12.176,17.142 ZM15.646,27.696 C12.419,31.069 14.918,34.631 12.545,38.371 C10.012,42.360 4.191,41.545 2.082,38.619 C-2.387,32.411 0.294,24.362 10.298,21.732 C10.643,26.300 13.550,27.471 15.646,27.696 Z" class="cls-1"/>
</svg>
