<svg xmlns="http://www.w3.org/2000/svg" xmlns:xlink="http://www.w3.org/1999/xlink" preserveAspectRatio="xMidYMid" width="34.25" height="48.76" viewBox="0 0 34.25 48.76">
  <defs>
    <style>
      .cls-1 {
        fill: #606060;
        fill-rule: evenodd;
      }
    </style>
  </defs>
  <path d="M27.515,13.601 C24.052,7.898 20.200,2.960 18.212,0.526 C17.946,0.199 17.547,0.010 17.125,0.010 C16.704,0.010 16.304,0.199 16.038,0.526 C14.050,2.962 10.198,7.901 6.735,13.605 C2.272,20.957 0.009,27.035 0.009,31.670 C0.009,41.088 7.687,48.750 17.125,48.750 C26.562,48.750 34.241,41.088 34.241,31.670 C34.241,27.031 31.978,20.953 27.515,13.601 ZM19.474,42.459 C18.474,42.713 17.437,42.844 16.390,42.844 C9.995,42.844 4.793,38.021 4.793,32.094 C4.793,30.662 5.171,28.990 5.917,27.124 C6.044,26.809 6.403,26.630 6.757,26.705 C7.110,26.781 7.348,27.089 7.311,27.424 C7.268,27.824 7.246,28.215 7.246,28.585 C7.246,35.036 12.454,40.438 19.362,41.149 C19.705,41.185 19.974,41.442 20.001,41.762 C20.029,42.081 19.807,42.373 19.474,42.459 Z" class="cls-1"/>
</svg>
