<svg xmlns="http://www.w3.org/2000/svg" xmlns:xlink="http://www.w3.org/1999/xlink" preserveAspectRatio="xMidYMid" width="29.875" height="27.18" viewBox="0 0 29.875 27.18">
  <defs>
    <style>
      .cls-1 {
        fill: #000;
        fill-rule: evenodd;
      }
    </style>
  </defs>
  <path d="M29.020,19.471 L19.207,2.470 C18.323,0.938 16.689,-0.005 14.921,-0.005 C13.152,-0.005 11.519,0.938 10.634,2.470 L0.649,19.762 C-0.235,21.293 -0.235,23.179 0.649,24.711 C1.533,26.241 3.167,27.184 4.935,27.184 L24.906,27.184 C24.912,27.184 24.917,27.184 24.917,27.184 C27.651,27.184 29.867,24.969 29.867,22.235 C29.867,21.213 29.554,20.258 29.020,19.471 ZM17.040,21.126 C17.040,22.296 16.139,23.191 14.926,23.191 C13.713,23.191 12.813,22.296 12.813,21.126 L12.813,21.077 C12.813,19.913 13.713,19.012 14.926,19.012 C16.139,19.012 17.040,19.908 17.040,21.077 L17.040,21.126 ZM17.088,7.208 L16.042,16.339 C15.972,16.997 15.536,17.407 14.926,17.407 C14.317,17.407 13.880,16.991 13.810,16.339 L12.764,7.202 C12.694,6.497 13.077,5.962 13.735,5.962 L16.112,5.962 C16.770,5.968 17.158,6.501 17.088,7.208 Z" class="cls-1"/>
</svg>
