<svg xmlns="http://www.w3.org/2000/svg" xmlns:xlink="http://www.w3.org/1999/xlink" preserveAspectRatio="xMidYMid" width="16.156" height="34.91" viewBox="0 0 16.156 34.91">
  <defs>
    <style>
      .cls-1 {
        fill: #fff;
        fill-rule: evenodd;
      }
    </style>
  </defs>
  <path d="M12.715,6.910 C10.810,6.910 9.266,5.365 9.266,3.461 C9.266,1.555 10.810,0.011 12.715,0.011 C14.620,0.011 16.164,1.555 16.164,3.461 C16.164,5.365 14.620,6.910 12.715,6.910 ZM11.629,17.095 C11.629,20.307 9.026,22.910 5.815,22.910 C2.603,22.910 0.000,20.307 0.000,17.095 C0.000,13.883 2.603,11.281 5.815,11.281 C9.026,11.281 11.629,13.883 11.629,17.095 ZM5.165,13.923 C4.166,13.923 3.355,14.733 3.355,15.733 C3.355,16.733 4.166,17.543 5.165,17.543 C6.165,17.543 6.975,16.733 6.975,15.733 C6.975,14.733 6.165,13.923 5.165,13.923 ZM6.489,28.402 C8.286,28.402 9.742,29.859 9.742,31.655 C9.742,33.454 8.286,34.910 6.489,34.910 C4.691,34.910 3.235,33.454 3.235,31.655 C3.235,29.859 4.691,28.402 6.489,28.402 Z" class="cls-1"/>
</svg>
