<?xml version="1.0" encoding="UTF-8" standalone="no"?>
<svg width="11px" height="20px" viewBox="0 0 11 20" version="1.1" xmlns="http://www.w3.org/2000/svg" xmlns:xlink="http://www.w3.org/1999/xlink" xmlns:sketch="http://www.bohemiancoding.com/sketch/ns">
    <!-- Generator: Sketch 3.4 (15575) - http://www.bohemiancoding.com/sketch -->
    <title>Slice 1</title>
    <desc>Created with Sketch.</desc>
    <defs></defs>
    <g id="Page-1" stroke="none" stroke-width="1" fill="none" fill-rule="evenodd" sketch:type="MSPage">
        <path d="M87.099,17.055 C86.874,18.568 85.995,19.181 84.523,19.324 C83.542,19.427 82.52,19.427 81.539,19.427 L75.183,19.427 C74.181,19.427 73.179,19.427 72.178,19.324 C70.726,19.181 69.848,18.568 69.623,17.055 C69.48,16.074 69.5,15.073 69.5,14.092 C69.5,13.111 69.48,12.109 69.623,11.128 C69.848,9.616 70.726,9.002 72.178,8.859 C73.179,8.757 74.181,8.757 75.183,8.757 L81.519,8.757 C82.52,8.757 83.542,8.757 84.523,8.859 C85.995,9.002 86.874,9.616 87.099,11.128 C87.221,12.109 87.221,13.111 87.221,14.092 C87.221,15.073 87.221,16.074 87.099,17.055 L87.099,17.055 Z M74.59,10.413 L70.87,10.413 L70.87,11.435 L72.116,11.435 L72.116,17.424 L73.322,17.424 L73.322,11.435 L74.59,11.435 L74.59,10.413 L74.59,10.413 Z M77.635,12.252 L76.572,12.252 L76.572,16.177 C76.409,16.361 76.184,16.565 75.918,16.565 C75.714,16.565 75.653,16.402 75.653,16.218 L75.653,12.252 L74.569,12.252 L74.569,16.606 C74.569,17.075 74.794,17.505 75.326,17.505 C75.775,17.505 76.266,17.179 76.572,16.851 L76.572,17.424 L77.635,17.424 L77.635,12.252 L77.635,12.252 Z M81.764,13.479 C81.764,12.804 81.498,12.191 80.721,12.191 C80.354,12.191 80.027,12.395 79.781,12.661 L79.781,10.413 L78.698,10.413 L78.698,17.424 L79.781,17.424 L79.781,17.014 C80.068,17.321 80.354,17.485 80.783,17.485 C81.498,17.485 81.764,16.994 81.764,16.34 L81.764,13.479 L81.764,13.479 Z M84.156,16.647 C83.706,16.647 83.706,16.279 83.706,15.932 L83.706,14.951 L85.729,14.951 L85.729,13.642 C85.729,12.702 85.177,12.109 84.217,12.109 C83.317,12.109 82.582,12.681 82.582,13.642 L82.582,15.952 C82.582,16.933 83.154,17.566 84.135,17.566 C85.505,17.566 85.75,16.769 85.729,15.563 L84.646,15.563 L84.646,16.013 C84.646,16.361 84.564,16.647 84.156,16.647 L84.156,16.647 Z M83.706,13.581 C83.706,13.253 83.829,13.029 84.176,13.029 C84.523,13.029 84.646,13.274 84.646,13.581 L84.646,14.153 L83.706,14.153 L83.706,13.581 L83.706,13.581 Z M80.292,16.668 C80.068,16.668 79.924,16.585 79.781,16.443 L79.781,13.213 C79.884,13.09 80.047,13.008 80.231,13.008 C80.558,13.008 80.66,13.233 80.66,13.52 L80.66,16.238 C80.66,16.504 80.578,16.668 80.292,16.668 L80.292,16.668 Z M83.42,6.938 C83.011,7.347 82.479,7.735 81.866,7.735 C81.171,7.735 80.926,7.203 80.926,6.591 L80.926,1.255 L82.275,1.255 L82.275,6.161 C82.275,6.407 82.336,6.591 82.622,6.591 C82.888,6.591 83.236,6.283 83.42,6.1 L83.42,1.255 L84.748,1.255 L84.748,7.654 L83.42,7.654 L83.42,6.938 L83.42,6.938 Z M77.88,7.817 C76.797,7.817 75.959,7.163 75.959,6.038 L75.959,2.727 C75.959,1.603 76.92,1.092 77.942,1.092 C78.923,1.092 79.822,1.705 79.822,2.748 L79.822,6.059 C79.822,7.244 79.005,7.817 77.88,7.817 L77.88,7.817 Z M78.453,2.666 C78.453,2.38 78.146,2.196 77.88,2.196 C77.615,2.196 77.349,2.38 77.349,2.666 L77.349,6.161 C77.349,6.488 77.553,6.693 77.88,6.693 C78.228,6.693 78.453,6.529 78.453,6.161 L78.453,2.666 L78.453,2.666 Z M74.283,4.403 C74.283,5.486 74.303,6.57 74.303,7.654 L72.811,7.654 L72.811,4.71 C72.811,3.769 72.484,3.32 72.198,2.482 L71.013,-1.014 L72.546,-1.014 L73.486,2.441 L73.588,2.441 L74.508,-1.014 L76.02,-1.014 L74.896,2.36 C74.671,3.013 74.283,3.688 74.283,4.403 L74.283,4.403 Z M48.301,12.965 C48.301,16.521 45.231,17.673 42.161,17.673 L35.689,17.673 L35.689,2.322 L41.624,2.322 C44.157,2.322 47.278,2.604 47.278,5.879 C47.278,7.337 46.51,8.616 45.155,9.179 L45.155,9.256 C47.099,9.665 48.301,10.944 48.301,12.965 L48.301,12.965 Z M41.01,5.137 L39.859,5.137 L39.859,8.386 L40.908,8.386 C42.161,8.386 43.364,8.258 43.364,6.672 C43.364,5.239 42.136,5.137 41.01,5.137 L41.01,5.137 Z M41.65,11.021 L39.859,11.021 L39.859,14.858 L41.189,14.858 C42.622,14.858 44.336,14.731 44.336,12.888 C44.336,11.174 43.006,11.021 41.65,11.021 L41.65,11.021 Z M8.208,3.232 C7.542,3.232 6.11,3.667 6.11,4.511 L6.11,6.532 L9.512,6.532 L9.512,9.935 L6.11,9.935 L6.11,19.324 L2.681,19.324 L2.681,9.935 L0.993,9.935 L0.993,6.532 L2.681,6.532 L2.681,4.818 C2.681,2.235 3.858,0.085 6.698,0.085 C7.67,0.085 9.41,0.136 10.356,0.469 L9.845,3.488 C9.333,3.334 8.745,3.232 8.208,3.232 L8.208,3.232 Z" id="Shape" fill="#353535" sketch:type="MSShapeGroup"></path>
    </g>
</svg>