<?xml version="1.0" encoding="UTF-8" standalone="no"?>
<svg width="178px" height="93px" viewBox="0 0 178 93" version="1.1" xmlns="http://www.w3.org/2000/svg" xmlns:xlink="http://www.w3.org/1999/xlink" xmlns:sketch="http://www.bohemiancoding.com/sketch/ns">
    <!-- Generator: Sketch 3.4 (15575) - http://www.bohemiancoding.com/sketch -->
    <title>Untitled</title>
    <desc>Created with Sketch.</desc>
    <defs></defs>
    <g id="Page-1" stroke="none" stroke-width="1" fill="none" fill-rule="evenodd" sketch:type="MSPage">
        <path d="M63,92.012 L1,92.012 C0.448,92.012 0,91.564 0,91.012 L0,85.95 C0,85.397 0.448,84.95 1,84.95 L2.024,84.95 C2.035,84.581 2.049,84.185 2.068,83.907 C2.594,76.086 6.396,68.864 12.251,63.665 C12.1,63.49 12,63.27 12,63.021 L12,57.949 C12,57.396 12.448,56.949 13,56.949 L17.047,56.949 C17.235,54.193 18.033,44.073 19.828,39.811 C20.988,37.057 22.993,33.734 24.528,31.348 C23.892,31.457 23.29,31.478 22.72,31.494 C21.159,31.537 19.926,31.571 18.272,33.577 C14.689,37.918 11.367,39.752 11.228,39.828 C10.902,40.006 10.504,39.988 10.195,39.781 C10.035,39.674 6.244,37.123 3.908,33.48 C1.511,29.742 3.092,27.727 4.487,25.948 C4.641,25.752 4.797,25.553 4.95,25.349 C6.482,23.306 21.904,8.601 22.56,7.976 C22.692,7.849 22.859,7.774 23.036,7.735 L21.743,1.399 C21.689,1.134 21.745,0.858 21.898,0.634 C22.051,0.41 22.289,0.259 22.556,0.213 C23.004,0.135 33.69,-1.546 43.689,7.957 C53.789,17.557 55.248,32.98 52.214,44.006 C50.79,49.182 50.275,51.053 49.808,51.662 C49.259,54.164 48.684,56.046 48.389,56.949 L49.958,56.949 C50.51,56.949 50.958,57.396 50.958,57.949 L50.958,62.781 C57.341,67.97 61.802,75.503 62.415,83.675 C62.441,84.014 62.46,84.508 62.474,84.95 L63,84.95 C63.552,84.95 64,85.397 64,85.95 L64,91.012 C64,91.564 63.552,92.012 63,92.012 L63,92.012 Z M6.55,26.549 C6.388,26.765 6.223,26.975 6.061,27.183 C4.752,28.851 3.961,29.858 5.592,32.4 C7.225,34.947 9.724,36.958 10.793,37.751 C11.817,37.084 14.213,35.352 16.728,32.304 C18.962,29.597 20.93,29.543 22.665,29.495 C23.921,29.46 25.006,29.43 26.33,28.408 C29.281,26.127 29.028,24.204 29.015,24.124 C28.934,23.586 29.294,23.07 29.829,22.976 C30.366,22.883 30.875,23.22 30.98,23.753 C31.004,23.872 31.491,26.561 28.192,29.461 C27.609,30.299 23.477,36.3 21.672,40.587 C20.039,44.463 19.253,54.123 19.053,56.949 L46.295,56.949 C46.301,56.923 46.296,56.897 46.305,56.871 C46.383,56.646 54.226,34.257 43.245,21.604 C33.384,10.244 25.348,9.687 23.669,9.681 C19.046,14.091 7.716,24.995 6.55,26.549 L6.55,26.549 Z M42.311,9.406 C34.801,2.269 26.742,1.951 23.926,2.093 L25.083,7.761 C28.491,8.144 36.006,10.213 44.755,20.294 C49.555,25.823 51.06,32.887 51.142,39.375 C52.598,29.626 50.55,17.238 42.311,9.406 L42.311,9.406 Z M48.958,58.949 L14,58.949 L14,62.02 L48.958,62.02 L48.958,58.949 L48.958,58.949 Z M60.421,83.825 C59.837,76.036 55.477,68.871 49.316,64.02 L14.938,64.02 C8.706,68.924 4.594,76.156 4.063,84.042 C4.047,84.285 4.034,84.624 4.024,84.95 L60.474,84.95 C60.461,84.554 60.443,84.124 60.421,83.825 L60.421,83.825 Z M62,86.95 L61.5,86.95 L3,86.95 L2,86.95 L2,90.012 L62,90.012 L62,86.95 L62,86.95 Z" id="Shape" fill="#ADADAD" sketch:type="MSShapeGroup"></path>
        <path d="M177,91.9611223 L115,91.9611223 C114.448,91.9611223 114,91.5131223 114,90.9611223 L114,85.8991223 C114,85.3461223 114.448,84.8991223 115,84.8991223 L116.024,84.8991223 C116.035,84.5301223 116.049,84.1341223 116.068,83.8561223 C116.594,76.0351223 120.396,68.8131223 126.251,63.6141223 C126.1,63.4391223 126,63.2191223 126,62.9701223 L126,57.8981223 C126,57.3451223 126.448,56.8981223 127,56.8981223 L131.047,56.8981223 C131.235,54.1421223 132.033,44.0221223 133.828,39.7601223 C134.988,37.0061223 136.993,33.6831223 138.528,31.2971223 C137.892,31.4061223 137.29,31.4271223 136.72,31.4431223 C135.159,31.4861223 133.926,31.5201223 132.272,33.5261223 C128.689,37.8671223 125.367,39.7011223 125.228,39.7771223 C124.902,39.9551223 124.504,39.9371223 124.195,39.7301223 C124.035,39.6231223 120.244,37.0721223 117.908,33.4291223 C115.511,29.6911223 117.092,27.6761223 118.487,25.8971223 C118.641,25.7011223 118.797,25.5021223 118.95,25.2981223 C120.482,23.2551223 135.904,8.55012235 136.56,7.92512235 C136.692,7.79812235 136.859,7.72312235 137.036,7.68412235 L135.743,1.34812235 C135.689,1.08312235 135.745,0.807122349 135.898,0.583122349 C136.051,0.359122349 136.289,0.208122349 136.556,0.162122349 C137.004,0.0841223489 147.69,-1.59687765 157.689,7.90612235 C167.789,17.5061223 169.248,32.9291223 166.214,43.9551223 C164.79,49.1311223 164.275,51.0021223 163.808,51.6111223 C163.259,54.1131223 162.684,55.9951223 162.389,56.8981223 L163.958,56.8981223 C164.51,56.8981223 164.958,57.3451223 164.958,57.8981223 L164.958,62.7301223 C171.341,67.9191223 175.802,75.4521223 176.415,83.6241223 C176.441,83.9631223 176.46,84.4571223 176.474,84.8991223 L177,84.8991223 C177.552,84.8991223 178,85.3461223 178,85.8991223 L178,90.9611223 C178,91.5131223 177.552,91.9611223 177,91.9611223 L177,91.9611223 Z M120.55,26.4981223 C120.388,26.7141223 120.223,26.9241223 120.061,27.1321223 C118.752,28.8001223 117.961,29.8071223 119.592,32.3491223 C121.225,34.8961223 123.724,36.9071223 124.793,37.7001223 C125.817,37.0331223 128.213,35.3011223 130.728,32.2531223 C132.962,29.5461223 134.93,29.4921223 136.665,29.4441223 C137.921,29.4091223 139.006,29.3791223 140.33,28.3571223 C143.281,26.0761223 143.028,24.1531223 143.015,24.0731223 C142.934,23.5351223 143.294,23.0191223 143.829,22.9251223 C144.366,22.8321223 144.875,23.1691223 144.98,23.7021223 C145.004,23.8211223 145.491,26.5101223 142.192,29.4101223 C141.609,30.2481223 137.477,36.2491223 135.672,40.5361223 C134.039,44.4121223 133.253,54.0721223 133.053,56.8981223 L160.295,56.8981223 C160.301,56.8721223 160.296,56.8461223 160.305,56.8201223 C160.383,56.5951223 168.226,34.2061223 157.245,21.5531223 C147.384,10.1931223 139.348,9.63612235 137.669,9.63012235 C133.046,14.0401223 121.716,24.9441223 120.55,26.4981223 L120.55,26.4981223 Z M156.311,9.35512235 C148.801,2.21812235 140.742,1.90012235 137.926,2.04212235 L139.083,7.71012235 C142.491,8.09312235 150.006,10.1621223 158.755,20.2431223 C163.555,25.7721223 165.06,32.8361223 165.142,39.3241223 C166.598,29.5751223 164.55,17.1871223 156.311,9.35512235 L156.311,9.35512235 Z M162.958,58.8981223 L128,58.8981223 L128,61.9691223 L162.958,61.9691223 L162.958,58.8981223 L162.958,58.8981223 Z M174.421,83.7741223 C173.837,75.9851223 169.477,68.8201223 163.316,63.9691223 L128.938,63.9691223 C122.706,68.8731223 118.594,76.1051223 118.063,83.9911223 C118.047,84.2341223 118.034,84.5731223 118.024,84.8991223 L174.474,84.8991223 C174.461,84.5031223 174.443,84.0731223 174.421,83.7741223 L174.421,83.7741223 Z M176,86.8991223 L175.5,86.8991223 L117,86.8991223 L116,86.8991223 L116,89.9611223 L176,89.9611223 L176,86.8991223 L176,86.8991223 Z" id="Shape" fill="#F20504" sketch:type="MSShapeGroup"></path>
    </g>
</svg>