<?xml version="1.0" encoding="UTF-8" standalone="no"?>
<svg width="94px" height="93px" viewBox="0 0 94 93" version="1.1" xmlns="http://www.w3.org/2000/svg" xmlns:xlink="http://www.w3.org/1999/xlink" xmlns:sketch="http://www.bohemiancoding.com/sketch/ns">
    <!-- Generator: Sketch 3.4 (15575) - http://www.bohemiancoding.com/sketch -->
    <title>Untitled</title>
    <desc>Created with Sketch.</desc>
    <defs></defs>
    <g id="Page-1" stroke="none" stroke-width="1" fill="none" fill-rule="evenodd" sketch:type="MSPage">
        <path d="M88.7220348,28.702 C85.3240348,32.073 81.1090348,33.929 76.8530348,33.929 C74.8640348,33.929 72.9020348,33.535 71.0100348,32.756 L33.0150348,70.6 C35.0620348,76.61 33.5480348,83.326 29.0710348,87.877 C25.8750348,91.124 21.6050348,92.913 17.0490348,92.913 C15.7040348,92.913 14.3610348,92.751 13.0570348,92.435 C12.7610348,92.363 12.5140348,92.161 12.3850348,91.884 C12.2570348,91.608 12.2620348,91.289 12.3980348,91.017 C12.4450348,90.923 12.5120348,90.826 12.5860348,90.751 L17.3830348,85.878 L16.2870348,76.804 L6.95703476,75.576 L1.87403476,80.736 C1.60903476,81.005 1.21503476,81.101 0.856034765,80.986 C0.498034765,80.871 0.234034765,80.564 0.174034765,80.191 C0.111034765,79.797 -1.28796524,70.484 5.03803476,64.21 C8.43503476,60.84 12.6490348,58.983 16.9060348,58.983 C18.8950348,58.983 20.8580348,59.378 22.7490348,60.158 L60.7450348,22.312 C58.6980348,16.304 60.2120348,9.587 64.6890348,5.036 C67.8850348,1.788 72.1540348,0 76.7100348,0 C78.0550348,0 79.3980348,0.159 80.7020348,0.477 C80.9850348,0.546 81.2240348,0.735 81.3570348,0.994 C81.4890348,1.254 81.5020348,1.557 81.3920348,1.827 C81.3420348,1.948 81.2660348,2.068 81.1740348,2.161 L76.3760348,7.035 L77.4730348,16.109 L86.8020348,17.337 L91.8860348,12.177 C92.1500348,11.909 92.5440348,11.812 92.9030348,11.926 C93.2620348,12.042 93.5270348,12.348 93.5860348,12.721 C93.6490348,13.115 95.0480348,22.429 88.7220348,28.702 L88.7220348,28.702 Z M87.8770348,19.095 C87.6570348,19.318 87.3450348,19.426 87.0340348,19.385 L76.4430348,17.991 C75.9900348,17.931 75.6350348,17.573 75.5810348,17.12 L74.3320348,6.797 C74.2950348,6.494 74.3990348,6.192 74.6120348,5.975 L78.4290348,2.098 C77.8590348,2.033 77.2840348,2 76.7100348,2 C72.6940348,2 68.9320348,3.576 66.1150348,6.438 C62.0330348,10.589 60.7460348,16.78 62.8360348,22.212 C62.9780348,22.582 62.8890348,23 62.6080348,23.28 L23.6780348,62.056 C23.3820348,62.35 22.9340348,62.43 22.5530348,62.253 C20.7300348,61.41 18.8290348,60.983 16.9060348,60.983 C13.1810348,60.983 9.46603476,62.633 6.44603476,65.63 C2.56603476,69.478 1.99703476,74.814 2.01503476,77.742 L5.88103476,73.817 C6.10103476,73.594 6.41203476,73.486 6.72503476,73.528 L17.3180348,74.924 C17.7700348,74.983 18.1250348,75.342 18.1790348,75.794 L19.4270348,86.116 C19.4640348,86.419 19.3600348,86.721 19.1470348,86.937 L15.3310348,90.813 C15.9000348,90.879 16.4750348,90.913 17.0490348,90.913 C21.0650348,90.913 24.8290348,89.336 27.6460348,86.474 C31.7280348,82.325 33.0150348,76.133 30.9250348,70.7 C30.7820348,70.33 30.8720348,69.912 31.1520348,69.632 L70.0810348,30.858 C70.3780348,30.564 70.8270348,30.486 71.2060348,30.659 C73.0300348,31.502 74.9290348,31.929 76.8530348,31.929 C80.5780348,31.929 84.2930348,30.279 87.3140348,27.283 C91.2090348,23.421 91.7720348,18.089 91.7490348,15.165 L87.8770348,19.095 L87.8770348,19.095 Z M31.9780348,62.244 C31.7830348,62.437 31.5280348,62.534 31.2740348,62.534 C31.0160348,62.534 30.7590348,62.436 30.5640348,62.238 C30.1740348,61.846 30.1770348,61.213 30.5690348,60.824 L62.8920348,28.759 C63.2840348,28.371 63.9180348,28.374 64.3060348,28.765 C64.6950348,29.157 64.6920348,29.79 64.3000348,30.179 L31.9780348,62.244 L31.9780348,62.244 Z" id="Shape" fill="#ADADAD" sketch:type="MSShapeGroup"></path>
    </g>
</svg>