<?xml version="1.0" encoding="UTF-8" standalone="no"?>
<svg width="35px" height="49px" viewBox="0 0 35 49" version="1.1" xmlns="http://www.w3.org/2000/svg" xmlns:xlink="http://www.w3.org/1999/xlink" xmlns:sketch="http://www.bohemiancoding.com/sketch/ns">
    <!-- Generator: Sketch 3.4 (15575) - http://www.bohemiancoding.com/sketch -->
    <title>Untitled</title>
    <desc>Created with Sketch.</desc>
    <defs></defs>
    <g id="Page-1" stroke="none" stroke-width="1" fill="none" fill-rule="evenodd" sketch:type="MSPage">
        <path d="M27.515,13.601 C24.052,7.898 20.2,2.96 18.212,0.526 C17.946,0.199 17.547,0.01 17.125,0.01 C16.704,0.01 16.304,0.199 16.038,0.526 C14.05,2.962 10.198,7.901 6.735,13.605 C2.272,20.957 0.009,27.035 0.009,31.67 C0.009,41.088 7.687,48.75 17.125,48.75 C26.562,48.75 34.241,41.088 34.241,31.67 C34.241,27.031 31.978,20.953 27.515,13.601 L27.515,13.601 Z M19.474,42.459 C18.474,42.713 17.437,42.844 16.39,42.844 C9.995,42.844 4.793,38.021 4.793,32.094 C4.793,30.662 5.171,28.99 5.917,27.124 C6.044,26.809 6.403,26.63 6.757,26.705 C7.11,26.781 7.348,27.089 7.311,27.424 C7.268,27.824 7.246,28.215 7.246,28.585 C7.246,35.036 12.454,40.438 19.362,41.149 C19.705,41.185 19.974,41.442 20.001,41.762 C20.029,42.081 19.807,42.373 19.474,42.459 L19.474,42.459 Z" id="Shape" fill="#000000" sketch:type="MSShapeGroup"></path>
    </g>
</svg>