<?xml version="1.0" encoding="UTF-8" standalone="no"?>
<svg width="238px" height="93px" viewBox="0 0 238 93" version="1.1" xmlns="http://www.w3.org/2000/svg" xmlns:xlink="http://www.w3.org/1999/xlink" xmlns:sketch="http://www.bohemiancoding.com/sketch/ns">
    <!-- Generator: Sketch 3.4 (15575) - http://www.bohemiancoding.com/sketch -->
    <title>Untitled</title>
    <desc>Created with Sketch.</desc>
    <defs></defs>
    <g id="Page-1" stroke="none" stroke-width="1" fill="none" fill-rule="evenodd" sketch:type="MSPage">
        <path d="M88.7220348,28.702 C85.3240348,32.073 81.1090348,33.929 76.8530348,33.929 C74.8640348,33.929 72.9020348,33.535 71.0100348,32.756 L33.0150348,70.6 C35.0620348,76.61 33.5480348,83.326 29.0710348,87.877 C25.8750348,91.124 21.6050348,92.913 17.0490348,92.913 C15.7040348,92.913 14.3610348,92.751 13.0570348,92.435 C12.7610348,92.363 12.5140348,92.161 12.3850348,91.884 C12.2570348,91.608 12.2620348,91.289 12.3980348,91.017 C12.4450348,90.923 12.5120348,90.826 12.5860348,90.751 L17.3830348,85.878 L16.2870348,76.804 L6.95703476,75.576 L1.87403476,80.736 C1.60903476,81.005 1.21503476,81.101 0.856034765,80.986 C0.498034765,80.871 0.234034765,80.564 0.174034765,80.191 C0.111034765,79.797 -1.28796524,70.484 5.03803476,64.21 C8.43503476,60.84 12.6490348,58.983 16.9060348,58.983 C18.8950348,58.983 20.8580348,59.378 22.7490348,60.158 L60.7450348,22.312 C58.6980348,16.304 60.2120348,9.587 64.6890348,5.036 C67.8850348,1.788 72.1540348,0 76.7100348,0 C78.0550348,0 79.3980348,0.159 80.7020348,0.477 C80.9850348,0.546 81.2240348,0.735 81.3570348,0.994 C81.4890348,1.254 81.5020348,1.557 81.3920348,1.827 C81.3420348,1.948 81.2660348,2.068 81.1740348,2.161 L76.3760348,7.035 L77.4730348,16.109 L86.8020348,17.337 L91.8860348,12.177 C92.1500348,11.909 92.5440348,11.812 92.9030348,11.926 C93.2620348,12.042 93.5270348,12.348 93.5860348,12.721 C93.6490348,13.115 95.0480348,22.429 88.7220348,28.702 L88.7220348,28.702 Z M87.8770348,19.095 C87.6570348,19.318 87.3450348,19.426 87.0340348,19.385 L76.4430348,17.991 C75.9900348,17.931 75.6350348,17.573 75.5810348,17.12 L74.3320348,6.797 C74.2950348,6.494 74.3990348,6.192 74.6120348,5.975 L78.4290348,2.098 C77.8590348,2.033 77.2840348,2 76.7100348,2 C72.6940348,2 68.9320348,3.576 66.1150348,6.438 C62.0330348,10.589 60.7460348,16.78 62.8360348,22.212 C62.9780348,22.582 62.8890348,23 62.6080348,23.28 L23.6780348,62.056 C23.3820348,62.35 22.9340348,62.43 22.5530348,62.253 C20.7300348,61.41 18.8290348,60.983 16.9060348,60.983 C13.1810348,60.983 9.46603476,62.633 6.44603476,65.63 C2.56603476,69.478 1.99703476,74.814 2.01503476,77.742 L5.88103476,73.817 C6.10103476,73.594 6.41203476,73.486 6.72503476,73.528 L17.3180348,74.924 C17.7700348,74.983 18.1250348,75.342 18.1790348,75.794 L19.4270348,86.116 C19.4640348,86.419 19.3600348,86.721 19.1470348,86.937 L15.3310348,90.813 C15.9000348,90.879 16.4750348,90.913 17.0490348,90.913 C21.0650348,90.913 24.8290348,89.336 27.6460348,86.474 C31.7280348,82.325 33.0150348,76.133 30.9250348,70.7 C30.7820348,70.33 30.8720348,69.912 31.1520348,69.632 L70.0810348,30.858 C70.3780348,30.564 70.8270348,30.486 71.2060348,30.659 C73.0300348,31.502 74.9290348,31.929 76.8530348,31.929 C80.5780348,31.929 84.2930348,30.279 87.3140348,27.283 C91.2090348,23.421 91.7720348,18.089 91.7490348,15.165 L87.8770348,19.095 L87.8770348,19.095 Z M31.9780348,62.244 C31.7830348,62.437 31.5280348,62.534 31.2740348,62.534 C31.0160348,62.534 30.7590348,62.436 30.5640348,62.238 C30.1740348,61.846 30.1770348,61.213 30.5690348,60.824 L62.8920348,28.759 C63.2840348,28.371 63.9180348,28.374 64.3060348,28.765 C64.6950348,29.157 64.6920348,29.79 64.3000348,30.179 L31.9780348,62.244 L31.9780348,62.244 Z" id="Shape" fill="#ADADAD" sketch:type="MSShapeGroup"></path>
        <path d="M232.722035,28.702 C229.324035,32.073 225.109035,33.929 220.853035,33.929 C218.864035,33.929 216.902035,33.535 215.010035,32.756 L177.015035,70.6 C179.062035,76.61 177.548035,83.326 173.071035,87.877 C169.875035,91.124 165.605035,92.913 161.049035,92.913 C159.704035,92.913 158.361035,92.751 157.057035,92.435 C156.761035,92.363 156.514035,92.161 156.385035,91.884 C156.257035,91.608 156.262035,91.289 156.398035,91.017 C156.445035,90.923 156.512035,90.826 156.586035,90.751 L161.383035,85.878 L160.287035,76.804 L150.957035,75.576 L145.874035,80.736 C145.609035,81.005 145.215035,81.101 144.856035,80.986 C144.498035,80.871 144.234035,80.564 144.174035,80.191 C144.111035,79.797 142.712035,70.484 149.038035,64.21 C152.435035,60.84 156.649035,58.983 160.906035,58.983 C162.895035,58.983 164.858035,59.378 166.749035,60.158 L204.745035,22.312 C202.698035,16.304 204.212035,9.587 208.689035,5.036 C211.885035,1.788 216.154035,0 220.710035,0 C222.055035,0 223.398035,0.159 224.702035,0.477 C224.985035,0.546 225.224035,0.735 225.357035,0.994 C225.489035,1.254 225.502035,1.557 225.392035,1.827 C225.342035,1.948 225.266035,2.068 225.174035,2.161 L220.376035,7.035 L221.473035,16.109 L230.802035,17.337 L235.886035,12.177 C236.150035,11.909 236.544035,11.812 236.903035,11.926 C237.262035,12.042 237.527035,12.348 237.586035,12.721 C237.649035,13.115 239.048035,22.429 232.722035,28.702 L232.722035,28.702 Z M231.877035,19.095 C231.657035,19.318 231.345035,19.426 231.034035,19.385 L220.443035,17.991 C219.990035,17.931 219.635035,17.573 219.581035,17.12 L218.332035,6.797 C218.295035,6.494 218.399035,6.192 218.612035,5.975 L222.429035,2.098 C221.859035,2.033 221.284035,2 220.710035,2 C216.694035,2 212.932035,3.576 210.115035,6.438 C206.033035,10.589 204.746035,16.78 206.836035,22.212 C206.978035,22.582 206.889035,23 206.608035,23.28 L167.678035,62.056 C167.382035,62.35 166.934035,62.43 166.553035,62.253 C164.730035,61.41 162.829035,60.983 160.906035,60.983 C157.181035,60.983 153.466035,62.633 150.446035,65.63 C146.566035,69.478 145.997035,74.814 146.015035,77.742 L149.881035,73.817 C150.101035,73.594 150.412035,73.486 150.725035,73.528 L161.318035,74.924 C161.770035,74.983 162.125035,75.342 162.179035,75.794 L163.427035,86.116 C163.464035,86.419 163.360035,86.721 163.147035,86.937 L159.331035,90.813 C159.900035,90.879 160.475035,90.913 161.049035,90.913 C165.065035,90.913 168.829035,89.336 171.646035,86.474 C175.728035,82.325 177.015035,76.133 174.925035,70.7 C174.782035,70.33 174.872035,69.912 175.152035,69.632 L214.081035,30.858 C214.378035,30.564 214.827035,30.486 215.206035,30.659 C217.030035,31.502 218.929035,31.929 220.853035,31.929 C224.578035,31.929 228.293035,30.279 231.314035,27.283 C235.209035,23.421 235.772035,18.089 235.749035,15.165 L231.877035,19.095 L231.877035,19.095 Z M175.978035,62.244 C175.783035,62.437 175.528035,62.534 175.274035,62.534 C175.016035,62.534 174.759035,62.436 174.564035,62.238 C174.174035,61.846 174.177035,61.213 174.569035,60.824 L206.892035,28.759 C207.284035,28.371 207.918035,28.374 208.306035,28.765 C208.695035,29.157 208.692035,29.79 208.300035,30.179 L175.978035,62.244 L175.978035,62.244 Z" id="Shape-Copy" fill="#F20504" sketch:type="MSShapeGroup"></path>
    </g>
</svg>