<svg xmlns="http://www.w3.org/2000/svg" xmlns:xlink="http://www.w3.org/1999/xlink" preserveAspectRatio="xMidYMid" width="54.5" height="58.69" viewBox="0 0 54.5 58.69">
  <defs>
    <style>
      .cls-1 {
        fill: #27abd1;
        fill-rule: evenodd;
      }
    </style>
  </defs>
  <path d="M44.905,58.433 C44.115,58.596 43.294,58.684 42.452,58.684 C35.851,58.684 30.495,53.377 30.404,46.795 C30.404,46.740 30.396,46.684 30.396,46.627 C30.396,45.798 30.504,44.997 30.663,44.215 C31.076,42.205 31.982,40.384 33.260,38.875 C34.056,37.935 34.727,37.102 35.773,36.440 L35.773,33.527 L35.773,26.048 L35.773,22.496 L35.773,15.018 L35.773,11.103 C35.773,9.994 36.064,8.955 36.570,8.051 C37.642,6.134 39.938,4.836 42.290,4.836 C42.771,4.836 43.238,4.896 43.686,4.998 C46.474,5.633 48.682,8.122 48.682,11.103 L48.682,36.241 C52.242,38.338 54.511,42.199 54.511,46.629 C54.511,52.447 50.389,57.301 44.905,58.433 ZM49.975,45.909 C49.761,43.338 47.745,40.755 44.761,39.992 L44.761,32.001 L44.761,27.398 L44.761,26.389 L44.761,26.048 L44.761,22.496 L44.761,21.146 L44.761,16.542 L44.761,13.383 C44.761,11.211 44.523,9.450 42.351,9.450 C41.853,9.450 41.443,9.553 41.091,9.722 C40.620,9.948 40.402,10.312 40.156,10.773 C40.038,10.989 39.947,11.228 39.872,11.484 C39.708,12.048 39.628,12.688 39.628,13.382 L39.628,15.033 L39.628,21.819 L39.628,26.387 L39.628,26.725 L39.628,33.509 L39.628,37.061 L39.628,37.247 L39.628,40.114 C39.098,40.277 38.488,40.513 38.030,40.788 C37.594,41.051 37.183,41.345 36.826,41.699 C35.999,42.512 35.417,43.561 35.118,44.758 C35.027,45.127 34.966,45.510 34.934,45.906 C34.908,46.104 34.889,46.305 34.889,46.508 C34.889,50.685 38.275,54.072 42.452,54.072 C46.631,54.072 50.018,50.685 50.018,46.508 C50.018,46.305 50.001,46.105 49.975,45.909 ZM43.892,50.249 C45.113,48.850 45.642,47.269 45.482,45.558 C45.352,44.164 48.010,44.173 48.139,45.558 C48.329,47.603 47.648,49.670 46.186,51.343 C45.200,52.472 42.895,51.390 43.892,50.249 ZM43.699,15.054 L43.699,17.121 L43.699,22.145 L43.699,22.495 L43.699,25.674 L43.699,26.012 L43.689,26.012 L40.753,26.012 L40.753,20.818 L40.753,15.038 L40.753,13.382 C40.753,12.520 40.742,11.856 40.913,11.425 C41.327,10.392 41.961,10.450 42.351,10.450 C42.743,10.450 43.195,10.454 43.607,11.501 C43.776,11.929 43.699,12.529 43.699,13.382 L43.699,15.054 ZM33.725,9.945 L33.725,17.020 L30.990,19.732 C30.343,18.725 29.491,17.863 28.490,17.209 L32.810,12.495 L32.786,4.028 L36.839,4.045 L36.836,4.416 C34.982,5.340 33.725,7.215 33.725,9.945 ZM25.661,16.023 C25.088,15.899 24.494,15.831 23.885,15.831 C23.276,15.831 22.683,15.900 22.110,16.023 L22.110,9.331 L15.946,3.167 L18.457,0.656 L22.109,4.308 L22.109,0.001 L25.661,0.001 L25.661,4.308 L29.314,0.656 L31.826,3.167 L25.661,9.331 L25.661,16.023 ZM22.109,16.023 C22.109,16.023 22.110,16.023 22.110,16.023 L22.110,16.023 L22.109,16.023 ZM16.781,19.734 L12.022,15.017 L3.305,15.056 L3.289,11.504 L8.454,11.480 L5.661,8.714 L8.161,6.191 L10.954,8.958 L10.931,4.105 L14.483,4.089 L14.523,12.494 L19.280,17.208 C18.278,17.863 17.427,18.725 16.781,19.734 ZM15.636,22.495 C15.512,23.068 15.444,23.661 15.444,24.270 C15.444,24.879 15.513,25.474 15.636,26.048 L8.944,26.048 L2.780,32.211 L0.269,29.700 L3.921,26.047 L-0.011,26.047 L-0.011,22.494 L3.921,22.494 L0.269,18.843 L2.780,16.330 L8.944,22.495 L15.636,22.495 ZM3.305,33.487 L12.022,33.527 L16.781,28.811 C17.427,29.819 18.279,30.681 19.280,31.336 L14.523,36.049 L14.483,45.017 L10.931,45.002 L10.954,39.586 L8.161,42.352 L5.661,39.829 L8.454,37.063 L3.289,37.041 L3.305,33.487 ZM23.885,30.712 C20.328,30.712 17.445,27.829 17.445,24.272 C17.445,20.714 20.328,17.832 23.885,17.832 C27.442,17.832 30.326,20.714 30.326,24.272 C30.326,27.829 27.442,30.712 23.885,30.712 ZM28.490,31.336 C29.491,30.681 30.343,29.819 30.988,28.811 L33.724,31.521 L33.724,35.026 C33.437,35.243 33.170,35.477 32.902,35.706 L28.490,31.336 ZM33.725,22.496 L33.725,26.048 L32.134,26.048 C32.258,25.474 32.326,24.881 32.326,24.272 C32.326,23.663 32.257,23.069 32.134,22.496 L33.725,22.496 ZM22.109,32.520 C22.682,32.644 23.276,32.712 23.885,32.712 C24.494,32.712 25.088,32.643 25.661,32.520 L25.661,39.211 L28.695,42.245 C28.425,43.319 28.275,44.485 28.275,45.770 C28.275,46.149 28.297,46.525 28.322,46.896 L25.661,44.235 L25.661,48.042 L22.108,48.042 L22.108,44.235 L18.456,47.886 L15.945,45.376 L22.109,39.211 L22.109,32.520 Z" class="cls-1"/>
</svg>
