<svg xmlns="http://www.w3.org/2000/svg" xmlns:xlink="http://www.w3.org/1999/xlink" preserveAspectRatio="xMidYMid" width="86.22" height="20.4" viewBox="0 0 86.22 20.4">
  <defs>
    <style>
      .cls-1 {
        fill: #353535;
        fill-rule: evenodd;
      }
    </style>
  </defs>
  <path d="M86.099,18.055 C85.874,19.568 84.995,20.181 83.523,20.324 C82.542,20.427 81.520,20.427 80.539,20.427 L74.183,20.427 C73.181,20.427 72.179,20.427 71.178,20.324 C69.726,20.181 68.848,19.568 68.623,18.055 C68.480,17.074 68.500,16.073 68.500,15.092 C68.500,14.111 68.480,13.109 68.623,12.128 C68.848,10.616 69.726,10.002 71.178,9.859 C72.179,9.757 73.181,9.757 74.183,9.757 L80.519,9.757 C81.520,9.757 82.542,9.757 83.523,9.859 C84.995,10.002 85.874,10.616 86.099,12.128 C86.221,13.109 86.221,14.111 86.221,15.092 C86.221,16.073 86.221,17.074 86.099,18.055 ZM73.590,11.413 L69.870,11.413 L69.870,12.435 L71.116,12.435 L71.116,18.424 L72.322,18.424 L72.322,12.435 L73.590,12.435 L73.590,11.413 ZM76.635,13.252 L75.572,13.252 L75.572,17.177 C75.409,17.361 75.184,17.565 74.918,17.565 C74.714,17.565 74.653,17.402 74.653,17.218 L74.653,13.252 L73.569,13.252 L73.569,17.606 C73.569,18.075 73.794,18.505 74.326,18.505 C74.775,18.505 75.266,18.179 75.572,17.851 L75.572,18.424 L76.635,18.424 L76.635,13.252 ZM80.764,14.479 C80.764,13.804 80.498,13.191 79.721,13.191 C79.354,13.191 79.027,13.395 78.781,13.661 L78.781,11.413 L77.698,11.413 L77.698,18.424 L78.781,18.424 L78.781,18.014 C79.068,18.321 79.354,18.485 79.783,18.485 C80.498,18.485 80.764,17.994 80.764,17.340 L80.764,14.479 ZM83.156,17.647 C82.706,17.647 82.706,17.279 82.706,16.932 L82.706,15.951 L84.729,15.951 L84.729,14.642 C84.729,13.702 84.177,13.109 83.217,13.109 C82.317,13.109 81.582,13.681 81.582,14.642 L81.582,16.952 C81.582,17.933 82.154,18.566 83.135,18.566 C84.505,18.566 84.750,17.769 84.729,16.563 L83.646,16.563 C83.646,16.707 83.646,16.870 83.646,17.013 C83.646,17.361 83.564,17.647 83.156,17.647 ZM82.706,14.581 C82.706,14.253 82.829,14.029 83.176,14.029 C83.523,14.029 83.646,14.274 83.646,14.581 L83.646,15.153 L82.706,15.153 L82.706,14.581 ZM79.292,17.668 C79.068,17.668 78.924,17.585 78.781,17.443 L78.781,14.213 C78.884,14.090 79.047,14.008 79.231,14.008 C79.558,14.008 79.660,14.233 79.660,14.520 L79.660,17.238 C79.660,17.504 79.578,17.668 79.292,17.668 ZM82.420,7.938 C82.011,8.347 81.479,8.735 80.866,8.735 C80.171,8.735 79.926,8.203 79.926,7.591 L79.926,2.255 L81.275,2.255 L81.275,7.161 C81.275,7.407 81.336,7.591 81.622,7.591 C81.888,7.591 82.236,7.283 82.420,7.100 L82.420,2.255 L83.748,2.255 L83.748,8.654 L82.420,8.654 L82.420,7.938 ZM76.880,8.817 C75.797,8.817 74.959,8.163 74.959,7.038 L74.959,3.727 C74.959,2.603 75.920,2.092 76.942,2.092 C77.923,2.092 78.822,2.705 78.822,3.748 L78.822,7.059 C78.822,8.244 78.005,8.817 76.880,8.817 ZM77.453,3.666 C77.453,3.380 77.146,3.196 76.880,3.196 C76.615,3.196 76.349,3.380 76.349,3.666 L76.349,7.161 C76.349,7.488 76.553,7.693 76.880,7.693 C77.228,7.693 77.453,7.529 77.453,7.161 L77.453,3.666 ZM73.283,5.403 C73.283,6.486 73.303,7.570 73.303,8.654 L71.811,8.654 C71.811,7.672 71.811,6.691 71.811,5.710 C71.811,4.769 71.484,4.320 71.198,3.482 L70.013,-0.014 L71.546,-0.014 L72.486,3.441 L72.588,3.441 L73.508,-0.014 L75.020,-0.014 L73.896,3.360 C73.671,4.013 73.283,4.688 73.283,5.403 ZM47.301,13.965 C47.301,17.521 44.231,18.673 41.161,18.673 L34.689,18.673 L34.689,3.322 L40.624,3.322 C43.157,3.322 46.278,3.604 46.278,6.879 C46.278,8.337 45.510,9.616 44.155,10.179 L44.155,10.256 C46.099,10.665 47.301,11.944 47.301,13.965 ZM40.010,6.137 L38.859,6.137 L38.859,9.386 L39.908,9.386 C41.161,9.386 42.364,9.258 42.364,7.672 C42.364,6.239 41.136,6.137 40.010,6.137 ZM40.650,12.021 L38.859,12.021 L38.859,15.858 L40.189,15.858 C41.622,15.858 43.336,15.731 43.336,13.888 C43.336,12.174 42.006,12.021 40.650,12.021 ZM7.208,4.232 C6.542,4.232 5.110,4.667 5.110,5.511 L5.110,7.532 L8.512,7.532 L8.512,10.935 L5.110,10.935 L5.110,20.324 L1.681,20.324 L1.681,10.935 L-0.007,10.935 L-0.007,7.532 L1.681,7.532 L1.681,5.818 C1.681,3.235 2.858,1.085 5.698,1.085 C6.670,1.085 8.410,1.136 9.356,1.469 L8.845,4.488 C8.333,4.334 7.745,4.232 7.208,4.232 Z" class="cls-1"/>
</svg>
