<?xml version="1.0" encoding="UTF-8" standalone="no"?>
<svg width="208px" height="208px" viewBox="0 0 208 208" version="1.1" xmlns="http://www.w3.org/2000/svg" xmlns:xlink="http://www.w3.org/1999/xlink" xmlns:sketch="http://www.bohemiancoding.com/sketch/ns">
    <!-- Generator: Sketch 3.4 (15575) - http://www.bohemiancoding.com/sketch -->
    <title>Slice 1</title>
    <desc>Created with Sketch.</desc>
    <defs></defs>
    <g id="Page-1" stroke="none" stroke-width="1" fill="none" fill-rule="evenodd" sketch:type="MSPage">
    	<circle id="Oval-1" stroke="#707B8B" stroke-width="2" cx="103.699997" cy="103.699997" r="103.699997"></circle>
            
        <g id="Group" sketch:type="MSLayerGroup" opacity="0.2">
        	
            <g id="Слой_3" fill="#86DBE7" sketch:type="MSShapeGroup">
                <path d="M103.7,0 C46.4,0 -1.42108547e-14,46.4 -1.42108547e-14,103.7 C-1.42108547e-14,161 46.4,207.4 103.7,207.4 C161,207.4 207.4,161 207.4,103.7 C207.5,46.4 161,0 103.7,0 L103.7,0 Z M30,99.2 L30,101.6 C28,95.4 27,88.8 27,82 C27,46.6 55.6,17.5 91.7,15.1 C56,26.3 30,59.7 30,99.2 L30,99.2 Z" id="Shape"></path>
            </g>
            <g id="Слой_5" transform="translate(27.000000, 15.000000)" fill="#FFFFFF" sketch:type="MSShapeGroup">
                <path d="M3,84.2 C3,44.7 28.9,11.3 64.7,-7.10542736e-15 C28.6,2.5 0,31.5 0,66.9 C0,73.7 1.1,80.3 3,86.5 L3,84.2 L3,84.2 Z" id="Shape"></path>
            </g>
        </g>
    </g>
</svg>