<svg xmlns="http://www.w3.org/2000/svg" xmlns:xlink="http://www.w3.org/1999/xlink" preserveAspectRatio="xMidYMid" width="52.312" height="54.19" viewBox="0 0 52.312 54.19">
  <defs>
    <style>
      .cls-1 {
        fill: #4bfff9;
        fill-rule: evenodd;
      }
    </style>
  </defs>
  <path d="M52.159,20.442 L49.956,21.255 C48.174,21.913 46.768,23.317 46.111,25.101 L45.299,27.303 C45.268,27.386 45.189,27.441 45.101,27.441 C45.013,27.441 44.934,27.386 44.903,27.303 L44.091,25.101 C43.434,23.317 42.028,21.913 40.246,21.255 L38.043,20.442 C37.961,20.412 37.905,20.333 37.905,20.245 C37.905,20.157 37.961,20.078 38.043,20.047 L40.245,19.235 C42.028,18.578 43.434,17.172 44.091,15.390 L44.903,13.188 C44.934,13.105 45.013,13.050 45.101,13.050 C45.189,13.050 45.268,13.105 45.299,13.188 L46.111,15.390 C46.768,17.172 48.174,18.578 49.956,19.235 L52.159,20.047 C52.242,20.078 52.297,20.157 52.297,20.245 C52.297,20.333 52.242,20.412 52.159,20.442 ZM41.196,45.790 L41.763,44.254 C41.784,44.196 41.839,44.158 41.901,44.158 C41.962,44.158 42.017,44.196 42.039,44.254 L42.605,45.790 C43.064,47.033 44.044,48.013 45.288,48.472 L46.824,49.039 C46.882,49.060 46.920,49.115 46.920,49.177 C46.920,49.239 46.882,49.293 46.824,49.315 L45.288,49.881 C44.044,50.340 43.064,51.321 42.605,52.563 L42.039,54.100 C42.018,54.158 41.962,54.196 41.901,54.196 C41.839,54.196 41.784,54.158 41.763,54.100 L41.196,52.563 C40.738,51.321 39.758,50.340 38.514,49.881 L36.978,49.315 C36.920,49.293 36.882,49.239 36.882,49.177 C36.882,49.115 36.920,49.060 36.978,49.039 L38.514,48.472 C39.757,48.013 40.738,47.033 41.196,45.790 ZM33.959,5.716 C32.715,6.174 31.735,7.155 31.276,8.398 L30.709,9.935 C30.688,9.993 30.633,10.030 30.571,10.030 C30.510,10.030 30.455,9.993 30.434,9.935 L29.867,8.398 C29.408,7.155 28.428,6.174 27.184,5.716 L25.648,5.148 C25.590,5.128 25.552,5.073 25.552,5.011 C25.552,4.950 25.590,4.894 25.648,4.873 L27.185,4.307 C28.428,3.848 29.408,2.868 29.867,1.624 L30.434,0.089 C30.455,0.031 30.510,-0.008 30.571,-0.008 C30.633,-0.008 30.688,0.031 30.709,0.089 L31.276,1.625 C31.734,2.868 32.715,3.849 33.958,4.307 L35.495,4.874 C35.552,4.895 35.591,4.950 35.591,5.011 C35.591,5.073 35.552,5.128 35.495,5.149 L33.959,5.716 ZM32.147,32.713 L35.388,33.908 C35.509,33.953 35.591,34.069 35.591,34.199 C35.591,34.328 35.510,34.445 35.388,34.489 L32.147,35.684 C29.524,36.651 27.456,38.721 26.489,41.344 L25.294,44.584 C25.249,44.706 25.133,44.787 25.003,44.787 C24.873,44.787 24.757,44.706 24.712,44.584 L23.517,41.344 C22.549,38.721 20.482,36.652 17.858,35.684 L14.618,34.489 C14.496,34.445 14.415,34.328 14.415,34.199 C14.415,34.069 14.496,33.953 14.618,33.908 L17.858,32.713 C20.481,31.746 22.549,29.677 23.517,27.054 L24.712,23.814 C24.757,23.692 24.873,23.611 25.003,23.611 C25.133,23.611 25.249,23.692 25.294,23.814 L26.489,27.054 C27.456,29.677 29.524,31.746 32.147,32.713 ZM20.986,13.368 L17.746,14.562 C15.123,15.529 13.055,17.598 12.087,20.221 L10.892,23.461 C10.847,23.583 10.731,23.664 10.601,23.664 C10.471,23.664 10.355,23.583 10.310,23.461 L9.115,20.221 C8.148,17.598 6.080,15.529 3.456,14.562 L0.216,13.368 C0.094,13.323 0.013,13.206 0.013,13.076 C0.013,12.946 0.094,12.830 0.216,12.786 L3.457,11.590 C6.080,10.623 8.148,8.555 9.115,5.932 L10.310,2.692 C10.355,2.570 10.471,2.489 10.601,2.489 C10.731,2.489 10.847,2.570 10.892,2.692 L12.087,5.932 C13.054,8.555 15.122,10.623 17.746,11.590 L20.986,12.786 C21.108,12.830 21.189,12.946 21.189,13.076 C21.189,13.206 21.108,13.323 20.986,13.368 ZM6.199,45.169 C7.763,44.591 8.996,43.359 9.573,41.794 L10.286,39.862 C10.312,39.790 10.382,39.741 10.459,39.741 C10.537,39.741 10.606,39.790 10.633,39.862 L11.345,41.795 C11.922,43.359 13.155,44.591 14.719,45.169 L16.652,45.881 C16.724,45.908 16.773,45.977 16.773,46.055 C16.773,46.132 16.724,46.200 16.652,46.228 L14.719,46.940 C13.155,47.518 11.922,48.750 11.345,50.314 L10.633,52.247 C10.606,52.319 10.537,52.368 10.459,52.368 C10.382,52.368 10.312,52.319 10.286,52.247 L9.573,50.314 C8.996,48.750 7.763,47.518 6.199,46.940 L4.267,46.228 C4.194,46.200 4.146,46.132 4.146,46.055 C4.146,45.977 4.194,45.908 4.267,45.881 L6.199,45.169 Z" class="cls-1"/>
</svg>
