<?xml version="1.0" encoding="UTF-8" standalone="no"?>
<svg width="225px" height="92px" viewBox="0 0 225 92" version="1.1" xmlns="http://www.w3.org/2000/svg" xmlns:xlink="http://www.w3.org/1999/xlink" xmlns:sketch="http://www.bohemiancoding.com/sketch/ns">
    <!-- Generator: Sketch 3.4 (15575) - http://www.bohemiancoding.com/sketch -->
    <title>Untitled 2</title>
    <desc>Created with Sketch.</desc>
    <defs></defs>
    <g id="Page-1" stroke="none" stroke-width="1" fill="none" fill-rule="evenodd" sketch:type="MSPage">
        <path d="M99.821,75.156 L37.027,86.96 C36.108,89.23 34.1,91.005 31.52,91.478 C31.078,91.56 30.628,91.601 30.182,91.601 C26.614,91.601 23.557,89.051 22.914,85.538 C22.242,81.865 24.438,78.347 27.891,77.211 L14.416,3.157 L2.158,5.325 C1.615,5.418 1.094,5.057 0.999,4.514 C0.903,3.971 1.266,3.451 1.81,3.355 L15.047,1.014 C15.587,0.921 16.107,1.279 16.205,1.82 L29.855,76.84 C29.967,76.835 30.079,76.809 30.191,76.809 C32.63,76.809 34.81,78.019 36.164,79.897 L98.51,68.177 C98.773,68.13 99.04,68.185 99.259,68.333 C99.478,68.484 99.628,68.714 99.677,68.975 L100.619,73.988 C100.721,74.532 100.364,75.054 99.821,75.156 L99.821,75.156 Z M30.191,78.809 C29.866,78.809 29.538,78.839 29.214,78.898 C26.29,79.436 24.345,82.253 24.88,85.177 C25.35,87.741 27.58,89.6 30.182,89.6 C30.507,89.6 30.836,89.571 31.16,89.511 C34.083,88.975 36.028,86.158 35.494,83.232 C35.022,80.67 32.791,78.809 30.191,78.809 L30.191,78.809 Z M97.897,70.327 L37.149,81.747 C37.277,82.11 37.389,82.483 37.46,82.872 C37.582,83.537 37.579,84.189 37.523,84.832 L98.469,73.375 L97.897,70.327 L97.897,70.327 Z M91.667,65.133 L36.531,75.232 C36.47,75.243 36.41,75.248 36.35,75.248 C35.876,75.248 35.456,74.911 35.368,74.429 L25.268,19.292 C25.169,18.748 25.528,18.227 26.071,18.128 L81.207,8.028 C81.472,7.977 81.738,8.037 81.956,8.188 C82.173,8.339 82.323,8.57 82.371,8.83 L92.471,63.969 C92.519,64.23 92.461,64.5 92.311,64.718 C92.16,64.936 91.929,65.086 91.667,65.133 L91.667,65.133 Z M80.583,10.175 L27.415,19.915 L37.155,73.085 L90.324,63.346 L80.583,10.175 L80.583,10.175 Z" id="Shape" fill="#AEAEAE" sketch:type="MSShapeGroup"></path>
        <path d="M223.837393,75.1566912 L161.043393,86.9606912 C160.124393,89.2306912 158.116393,91.0056912 155.536393,91.4786912 C155.094393,91.5606912 154.644393,91.6016912 154.198393,91.6016912 C150.630393,91.6016912 147.573393,89.0516912 146.930393,85.5386912 C146.258393,81.8656912 148.454393,78.3476912 151.907393,77.2116912 L138.432393,3.15769117 L126.174393,5.32569117 C125.631393,5.41869117 125.110393,5.05769117 125.015393,4.51469117 C124.919393,3.97169117 125.282393,3.45169117 125.826393,3.35569117 L139.063393,1.01469117 C139.603393,0.921691167 140.123393,1.27969117 140.221393,1.82069117 L153.871393,76.8406912 C153.983393,76.8356912 154.095393,76.8096912 154.207393,76.8096912 C156.646393,76.8096912 158.826393,78.0196912 160.180393,79.8976912 L222.526393,68.1776912 C222.789393,68.1306912 223.056393,68.1856912 223.275393,68.3336912 C223.494393,68.4846912 223.644393,68.7146912 223.693393,68.9756912 L224.635393,73.9886912 C224.737393,74.5326912 224.380393,75.0546912 223.837393,75.1566912 L223.837393,75.1566912 Z M154.207393,78.8096912 C153.882393,78.8096912 153.554393,78.8396912 153.230393,78.8986912 C150.306393,79.4366912 148.361393,82.2536912 148.896393,85.1776912 C149.366393,87.7416912 151.596393,89.6006912 154.198393,89.6006912 C154.523393,89.6006912 154.852393,89.5716912 155.176393,89.5116912 C158.099393,88.9756912 160.044393,86.1586912 159.510393,83.2326912 C159.038393,80.6706912 156.807393,78.8096912 154.207393,78.8096912 L154.207393,78.8096912 Z M221.913393,70.3276912 L161.165393,81.7476912 C161.293393,82.1106912 161.405393,82.4836912 161.476393,82.8726912 C161.598393,83.5376912 161.595393,84.1896912 161.539393,84.8326912 L222.485393,73.3756912 L221.913393,70.3276912 L221.913393,70.3276912 Z M215.683393,65.1336912 L160.547393,75.2326912 C160.486393,75.2436912 160.426393,75.2486912 160.366393,75.2486912 C159.892393,75.2486912 159.472393,74.9116912 159.384393,74.4296912 L149.284393,19.2926912 C149.185393,18.7486912 149.544393,18.2276912 150.087393,18.1286912 L205.223393,8.02869117 C205.488393,7.97769117 205.754393,8.03769117 205.972393,8.18869117 C206.189393,8.33969117 206.339393,8.57069117 206.387393,8.83069117 L216.487393,63.9696912 C216.535393,64.2306912 216.477393,64.5006912 216.327393,64.7186912 C216.176393,64.9366912 215.945393,65.0866912 215.683393,65.1336912 L215.683393,65.1336912 Z M204.599393,10.1756912 L151.431393,19.9156912 L161.171393,73.0856912 L214.340393,63.3466912 L204.599393,10.1756912 L204.599393,10.1756912 Z" id="Shape" fill="#F20504" sketch:type="MSShapeGroup"></path>
    </g>
</svg>