<?xml version="1.0" encoding="UTF-8" standalone="no"?>
<svg width="14px" height="16px" viewBox="0 0 14 16" version="1.1" xmlns="http://www.w3.org/2000/svg" xmlns:xlink="http://www.w3.org/1999/xlink" xmlns:sketch="http://www.bohemiancoding.com/sketch/ns">
    <!-- Generator: Sketch 3.4 (15575) - http://www.bohemiancoding.com/sketch -->
    <title>Slice 1</title>
    <desc>Created with Sketch.</desc>
    <defs></defs>
    <g id="Page-1" stroke="none" stroke-width="1" fill="none" fill-rule="evenodd" sketch:type="MSPage">
        <path d="M52.099,15.055 C51.874,16.568 50.995,17.181 49.523,17.324 C48.542,17.427 47.52,17.427 46.539,17.427 L40.183,17.427 C39.181,17.427 38.179,17.427 37.178,17.324 C35.726,17.181 34.848,16.568 34.623,15.055 C34.48,14.074 34.5,13.073 34.5,12.092 C34.5,11.111 34.48,10.109 34.623,9.128 C34.848,7.616 35.726,7.002 37.178,6.859 C38.179,6.757 39.181,6.757 40.183,6.757 L46.519,6.757 C47.52,6.757 48.542,6.757 49.523,6.859 C50.995,7.002 51.874,7.616 52.099,9.128 C52.221,10.109 52.221,11.111 52.221,12.092 C52.221,13.073 52.221,14.074 52.099,15.055 L52.099,15.055 Z M39.59,8.413 L35.87,8.413 L35.87,9.435 L37.116,9.435 L37.116,15.424 L38.322,15.424 L38.322,9.435 L39.59,9.435 L39.59,8.413 L39.59,8.413 Z M42.635,10.252 L41.572,10.252 L41.572,14.177 C41.409,14.361 41.184,14.565 40.918,14.565 C40.714,14.565 40.653,14.402 40.653,14.218 L40.653,10.252 L39.569,10.252 L39.569,14.606 C39.569,15.075 39.794,15.505 40.326,15.505 C40.775,15.505 41.266,15.179 41.572,14.851 L41.572,15.424 L42.635,15.424 L42.635,10.252 L42.635,10.252 Z M46.764,11.479 C46.764,10.804 46.498,10.191 45.721,10.191 C45.354,10.191 45.027,10.395 44.781,10.661 L44.781,8.413 L43.698,8.413 L43.698,15.424 L44.781,15.424 L44.781,15.014 C45.068,15.321 45.354,15.485 45.783,15.485 C46.498,15.485 46.764,14.994 46.764,14.34 L46.764,11.479 L46.764,11.479 Z M49.156,14.647 C48.706,14.647 48.706,14.279 48.706,13.932 L48.706,12.951 L50.729,12.951 L50.729,11.642 C50.729,10.702 50.177,10.109 49.217,10.109 C48.317,10.109 47.582,10.681 47.582,11.642 L47.582,13.952 C47.582,14.933 48.154,15.566 49.135,15.566 C50.505,15.566 50.75,14.769 50.729,13.563 L49.646,13.563 L49.646,14.013 C49.646,14.361 49.564,14.647 49.156,14.647 L49.156,14.647 Z M48.706,11.581 C48.706,11.253 48.829,11.029 49.176,11.029 C49.523,11.029 49.646,11.274 49.646,11.581 L49.646,12.153 L48.706,12.153 L48.706,11.581 L48.706,11.581 Z M45.292,14.668 C45.068,14.668 44.924,14.585 44.781,14.443 L44.781,11.213 C44.884,11.09 45.047,11.008 45.231,11.008 C45.558,11.008 45.66,11.233 45.66,11.52 L45.66,14.238 C45.66,14.504 45.578,14.668 45.292,14.668 L45.292,14.668 Z M48.42,4.938 C48.011,5.347 47.479,5.735 46.866,5.735 C46.171,5.735 45.926,5.203 45.926,4.591 L45.926,-0.745 L47.275,-0.745 L47.275,4.161 C47.275,4.407 47.336,4.591 47.622,4.591 C47.888,4.591 48.236,4.283 48.42,4.1 L48.42,-0.745 L49.748,-0.745 L49.748,5.654 L48.42,5.654 L48.42,4.938 L48.42,4.938 Z M42.88,5.817 C41.797,5.817 40.959,5.163 40.959,4.038 L40.959,0.727 C40.959,-0.397 41.92,-0.908 42.942,-0.908 C43.923,-0.908 44.822,-0.295 44.822,0.748 L44.822,4.059 C44.822,5.244 44.005,5.817 42.88,5.817 L42.88,5.817 Z M43.453,0.666 C43.453,0.38 43.146,0.196 42.88,0.196 C42.615,0.196 42.349,0.38 42.349,0.666 L42.349,4.161 C42.349,4.488 42.553,4.693 42.88,4.693 C43.228,4.693 43.453,4.529 43.453,4.161 L43.453,0.666 L43.453,0.666 Z M39.283,2.403 C39.283,3.486 39.303,4.57 39.303,5.654 L37.811,5.654 L37.811,2.71 C37.811,1.769 37.484,1.32 37.198,0.482 L36.013,-3.014 L37.546,-3.014 L38.486,0.441 L38.588,0.441 L39.508,-3.014 L41.02,-3.014 L39.896,0.36 C39.671,1.013 39.283,1.688 39.283,2.403 L39.283,2.403 Z M13.301,10.965 C13.301,14.521 10.231,15.673 7.161,15.673 L0.689,15.673 L0.689,0.322 L6.624,0.322 C9.157,0.322 12.278,0.604 12.278,3.879 C12.278,5.337 11.51,6.616 10.155,7.179 L10.155,7.256 C12.099,7.665 13.301,8.944 13.301,10.965 L13.301,10.965 Z M6.01,3.137 L4.859,3.137 L4.859,6.386 L5.908,6.386 C7.161,6.386 8.364,6.258 8.364,4.672 C8.364,3.239 7.136,3.137 6.01,3.137 L6.01,3.137 Z M6.65,9.021 L4.859,9.021 L4.859,12.858 L6.189,12.858 C7.622,12.858 9.336,12.731 9.336,10.888 C9.336,9.174 8.006,9.021 6.65,9.021 L6.65,9.021 Z M-26.792,1.232 C-27.458,1.232 -28.89,1.667 -28.89,2.511 L-28.89,4.532 L-25.488,4.532 L-25.488,7.935 L-28.89,7.935 L-28.89,17.324 L-32.319,17.324 L-32.319,7.935 L-34.007,7.935 L-34.007,4.532 L-32.319,4.532 L-32.319,2.818 C-32.319,0.235 -31.142,-1.915 -28.302,-1.915 C-27.33,-1.915 -25.59,-1.864 -24.644,-1.531 L-25.155,1.488 C-25.667,1.334 -26.255,1.232 -26.792,1.232 L-26.792,1.232 Z" id="Shape" fill="#353535" sketch:type="MSShapeGroup"></path>
    </g>
</svg>