<svg xmlns="http://www.w3.org/2000/svg" xmlns:xlink="http://www.w3.org/1999/xlink" preserveAspectRatio="xMidYMid" width="58.25" height="45.94" viewBox="0 0 58.25 45.94">
  <defs>
    <style>
      .cls-1 {
        fill: #27abd1;
        fill-rule: evenodd;
      }
    </style>
  </defs>
  <path d="M51.386,45.180 C50.948,45.668 50.320,45.948 49.664,45.948 L8.587,45.948 C7.931,45.948 7.303,45.668 6.865,45.180 C2.429,40.234 -0.014,33.940 -0.014,27.456 C-0.014,12.312 12.795,-0.008 28.863,-0.008 C44.931,-0.008 58.265,12.312 58.265,27.456 C58.265,33.940 55.822,40.234 51.386,45.180 ZM47.064,21.910 L52.657,21.059 C51.461,17.245 49.223,13.843 46.252,11.137 L42.206,15.300 C41.886,15.629 41.458,15.811 40.999,15.811 C40.558,15.811 40.142,15.640 39.825,15.334 C39.503,15.019 39.322,14.599 39.316,14.149 C39.309,13.699 39.479,13.273 39.792,12.951 L43.907,9.038 C40.274,6.554 35.245,4.980 30.484,4.677 L30.484,10.393 C30.484,11.322 29.791,12.078 28.863,12.078 C27.935,12.078 27.367,11.322 27.367,10.393 L27.367,4.677 C22.606,4.980 18.289,6.554 14.656,9.038 L18.459,12.951 C18.772,13.273 18.941,13.698 18.935,14.149 C18.929,14.599 18.748,15.019 18.425,15.334 C18.109,15.640 17.693,15.811 17.252,15.811 C16.793,15.811 16.364,15.629 16.045,15.300 L11.999,11.137 C9.028,13.843 6.790,17.245 5.593,21.059 L11.187,21.910 C12.104,22.050 12.738,22.910 12.598,23.828 C12.474,24.645 11.760,25.260 10.937,25.260 C10.851,25.260 10.765,25.254 10.680,25.241 L4.840,24.351 C4.691,25.367 4.613,26.403 4.613,27.456 C4.613,30.318 5.207,33.169 6.330,35.827 L12.377,32.813 C12.613,32.695 12.865,32.636 13.126,32.636 C13.770,32.636 14.348,32.994 14.635,33.570 C14.835,33.973 14.867,34.430 14.724,34.857 C14.582,35.284 14.281,35.629 13.879,35.830 L7.871,38.821 C8.345,39.592 8.796,40.848 9.413,41.626 L9.645,41.917 L48.606,41.917 L48.838,41.626 C49.398,40.921 49.912,39.584 50.379,38.822 L44.372,35.830 C43.970,35.629 43.670,35.284 43.527,34.857 C43.384,34.430 43.416,33.973 43.616,33.570 C43.903,32.994 44.481,32.636 45.125,32.636 C45.386,32.636 45.638,32.695 45.874,32.813 L51.920,35.830 C53.044,33.171 53.638,30.319 53.638,27.456 C53.638,26.403 53.560,25.367 53.411,24.351 L47.570,25.241 C47.486,25.254 47.400,25.260 47.314,25.260 C46.491,25.260 45.777,24.645 45.653,23.828 C45.513,22.910 46.146,22.050 47.064,21.910 ZM30.707,33.784 C28.907,34.401 26.948,33.441 26.332,31.638 C25.928,30.460 26.200,29.211 26.942,28.318 L23.929,15.802 C23.852,15.483 24.049,15.160 24.369,15.084 C24.652,15.014 24.936,15.162 25.051,15.418 L30.335,27.155 C31.468,27.407 32.448,28.226 32.851,29.406 C33.467,31.207 32.508,33.167 30.707,33.784 Z" class="cls-1"/>
</svg>
