<?xml version="1.0" encoding="UTF-8" standalone="no"?>
<svg width="19px" height="22px" viewBox="0 0 19 22" version="1.1" xmlns="http://www.w3.org/2000/svg" xmlns:xlink="http://www.w3.org/1999/xlink" xmlns:sketch="http://www.bohemiancoding.com/sketch/ns">
    <!-- Generator: Sketch 3.4 (15575) - http://www.bohemiancoding.com/sketch -->
    <title>yt</title>
    <desc>Created with Sketch.</desc>
    <defs></defs>
    <g id="Page-1" stroke="none" stroke-width="1" fill="none" fill-rule="evenodd" sketch:type="MSPage">
        <path d="M18.099,19.055 C17.874,20.568 16.995,21.181 15.523,21.324 C14.542,21.427 13.52,21.427 12.539,21.427 L6.183,21.427 C5.181,21.427 4.179,21.427 3.178,21.324 C1.726,21.181 0.848,20.568 0.623,19.055 C0.48,18.074 0.5,17.073 0.5,16.092 C0.5,15.111 0.48,14.109 0.623,13.128 C0.848,11.616 1.726,11.002 3.178,10.859 C4.179,10.757 5.181,10.757 6.183,10.757 L12.519,10.757 C13.52,10.757 14.542,10.757 15.523,10.859 C16.995,11.002 17.874,11.616 18.099,13.128 C18.221,14.109 18.221,15.111 18.221,16.092 C18.221,17.073 18.221,18.074 18.099,19.055 L18.099,19.055 Z M5.59,12.413 L1.87,12.413 L1.87,13.435 L3.116,13.435 L3.116,19.424 L4.322,19.424 L4.322,13.435 L5.59,13.435 L5.59,12.413 L5.59,12.413 Z M8.635,14.252 L7.572,14.252 L7.572,18.177 C7.409,18.361 7.184,18.565 6.918,18.565 C6.714,18.565 6.653,18.402 6.653,18.218 L6.653,14.252 L5.569,14.252 L5.569,18.606 C5.569,19.075 5.794,19.505 6.326,19.505 C6.775,19.505 7.266,19.179 7.572,18.851 L7.572,19.424 L8.635,19.424 L8.635,14.252 L8.635,14.252 Z M12.764,15.479 C12.764,14.804 12.498,14.191 11.721,14.191 C11.354,14.191 11.027,14.395 10.781,14.661 L10.781,12.413 L9.698,12.413 L9.698,19.424 L10.781,19.424 L10.781,19.014 C11.068,19.321 11.354,19.485 11.783,19.485 C12.498,19.485 12.764,18.994 12.764,18.34 L12.764,15.479 L12.764,15.479 Z M15.156,18.647 C14.706,18.647 14.706,18.279 14.706,17.932 L14.706,16.951 L16.729,16.951 L16.729,15.642 C16.729,14.702 16.177,14.109 15.217,14.109 C14.317,14.109 13.582,14.681 13.582,15.642 L13.582,17.952 C13.582,18.933 14.154,19.566 15.135,19.566 C16.505,19.566 16.75,18.769 16.729,17.563 L15.646,17.563 L15.646,18.013 C15.646,18.361 15.564,18.647 15.156,18.647 L15.156,18.647 Z M14.706,15.581 C14.706,15.253 14.829,15.029 15.176,15.029 C15.523,15.029 15.646,15.274 15.646,15.581 L15.646,16.153 L14.706,16.153 L14.706,15.581 L14.706,15.581 Z M11.292,18.668 C11.068,18.668 10.924,18.585 10.781,18.443 L10.781,15.213 C10.884,15.09 11.047,15.008 11.231,15.008 C11.558,15.008 11.66,15.233 11.66,15.52 L11.66,18.238 C11.66,18.504 11.578,18.668 11.292,18.668 L11.292,18.668 Z M14.42,8.938 C14.011,9.347 13.479,9.735 12.866,9.735 C12.171,9.735 11.926,9.203 11.926,8.591 L11.926,3.255 L13.275,3.255 L13.275,8.161 C13.275,8.407 13.336,8.591 13.622,8.591 C13.888,8.591 14.236,8.283 14.42,8.1 L14.42,3.255 L15.748,3.255 L15.748,9.654 L14.42,9.654 L14.42,8.938 L14.42,8.938 Z M8.88,9.817 C7.797,9.817 6.959,9.163 6.959,8.038 L6.959,4.727 C6.959,3.603 7.92,3.092 8.942,3.092 C9.923,3.092 10.822,3.705 10.822,4.748 L10.822,8.059 C10.822,9.244 10.005,9.817 8.88,9.817 L8.88,9.817 Z M9.453,4.666 C9.453,4.38 9.146,4.196 8.88,4.196 C8.615,4.196 8.349,4.38 8.349,4.666 L8.349,8.161 C8.349,8.488 8.553,8.693 8.88,8.693 C9.228,8.693 9.453,8.529 9.453,8.161 L9.453,4.666 L9.453,4.666 Z M5.283,6.403 C5.283,7.486 5.303,8.57 5.303,9.654 L3.811,9.654 L3.811,6.71 C3.811,5.769 3.484,5.32 3.198,4.482 L2.013,0.986 L3.546,0.986 L4.486,4.441 L4.588,4.441 L5.508,0.986 L7.02,0.986 L5.896,4.36 C5.671,5.013 5.283,5.688 5.283,6.403 L5.283,6.403 Z M-20.699,14.965 C-20.699,18.521 -23.769,19.673 -26.839,19.673 L-33.311,19.673 L-33.311,4.322 L-27.376,4.322 C-24.843,4.322 -21.722,4.604 -21.722,7.879 C-21.722,9.337 -22.49,10.616 -23.845,11.179 L-23.845,11.256 C-21.901,11.665 -20.699,12.944 -20.699,14.965 L-20.699,14.965 Z M-27.99,7.137 L-29.141,7.137 L-29.141,10.386 L-28.092,10.386 C-26.839,10.386 -25.636,10.258 -25.636,8.672 C-25.636,7.239 -26.864,7.137 -27.99,7.137 L-27.99,7.137 Z M-27.35,13.021 L-29.141,13.021 L-29.141,16.858 L-27.811,16.858 C-26.378,16.858 -24.664,16.731 -24.664,14.888 C-24.664,13.174 -25.994,13.021 -27.35,13.021 L-27.35,13.021 Z M-60.792,5.232 C-61.458,5.232 -62.89,5.667 -62.89,6.511 L-62.89,8.532 L-59.488,8.532 L-59.488,11.935 L-62.89,11.935 L-62.89,21.324 L-66.319,21.324 L-66.319,11.935 L-68.007,11.935 L-68.007,8.532 L-66.319,8.532 L-66.319,6.818 C-66.319,4.235 -65.142,2.085 -62.302,2.085 C-61.33,2.085 -59.59,2.136 -58.644,2.469 L-59.155,5.488 C-59.667,5.334 -60.255,5.232 -60.792,5.232 L-60.792,5.232 Z" id="Shape" fill="#353535" sketch:type="MSShapeGroup"></path>
    </g>
</svg>